<!--?xml version="1.0" encoding="utf-8"?-->
<!-- Generator: Adobe Illustrator 18.1.1, SVG Export Plug-In . SVG Version: 6.00 Build 0)  -->

<svg version="1.1" id="_x32_" xmlns="http://www.w3.org/2000/svg" xmlns:xlink="http://www.w3.org/1999/xlink" x="0px" y="0px" viewBox="0 0 512 512" style="width: 256px; height: 256px; opacity: 1;" xml:space="preserve">
<style type="text/css">
	.st0{fill:#4B4B4B;}
</style>
<g>
	<path class="st0" d="M230.546,324.601c6.688,6.703,15.969,10.547,25.454,10.547c9.469,0,18.75-3.844,25.453-10.547L398.422,207.64
		c14.062-14.054,14.062-36.851,0-50.906c-14.062-14.062-36.859-14.062-50.906,0v-0.007L292,212.242V38.188c0-19.883-16.125-36-36-36
		c-19.89,0-36,16.117-36,36v174.046l-55.5-55.5c-14.062-14.062-36.859-14.062-50.906-0.007c-14.062,14.062-14.062,36.859,0,50.914
		L230.546,324.601z" style="fill: rgb(75, 75, 75);"></path>
	<path class="st0" d="M473.453,383.148H333.406c-13.36,29.469-42.954,50-77.406,50c-34.454,0-64.047-20.531-77.39-50H38.562
		C17.266,383.148,0,400.406,0,421.696v49.562c0,21.297,17.266,38.554,38.562,38.554h434.89c21.297,0,38.547-17.258,38.547-38.554
		v-49.562C512,400.406,494.75,383.148,473.453,383.148z" style="fill: rgb(75, 75, 75);"></path>
</g>
</svg>
