<?xml version="1.0" encoding="UTF-8" standalone="no"?>
<!DOCTYPE svg PUBLIC "-//W3C//DTD SVG 1.1//EN" "http://www.w3.org/Graphics/SVG/1.1/DTD/svg11.dtd">
<svg version="1.1" xmlns="http://www.w3.org/2000/svg" xmlns:xlink="http://www.w3.org/1999/xlink" preserveAspectRatio="xMidYMid meet" viewBox="0 0 640 640" width="640" height="640"><defs><path d="M221.06 318.36C221.06 330.2 225.87 341.8 234.25 350.18C248.87 364.8 365.83 481.77 380.45 496.39C398.02 513.97 426.51 513.97 444.08 496.39C461.66 478.81 461.66 450.31 444.08 432.75C444.08 432.75 444.09 432.75 444.09 432.75L374.7 363.36C505.24 363.36 577.76 363.36 592.26 363.36C617.12 363.36 637.26 343.2 637.26 318.36C637.26 293.5 617.12 273.36 592.26 273.36C577.76 273.36 505.24 273.36 374.71 273.36C416.33 231.73 439.46 208.61 444.08 203.98C461.66 186.41 461.66 157.91 444.09 140.35C426.51 122.77 398.02 122.77 380.45 140.35C370.7 150.1 321.97 198.83 234.25 286.54C225.46 299.85 221.06 310.46 221.06 318.36Z" id="b1AHymPaOf"></path><path d="M161.06 415.12C124.23 398.42 98.56 361.42 98.56 318.36C98.56 275.29 124.23 238.3 161.06 221.62C161.06 204.12 161.06 64.07 161.06 46.56C161.06 19.94 139.49 -1.64 112.88 -1.64C106.68 -1.64 57.12 -1.64 50.93 -1.64C24.31 -1.64 2.74 19.94 2.74 46.56C2.74 100.92 2.74 535.81 2.74 590.18C2.74 616.8 24.31 638.36 50.93 638.36C57.12 638.36 106.68 638.36 112.88 638.36C139.49 638.36 161.07 616.8 161.07 590.18C161.07 555.16 161.06 432.62 161.06 415.12Z" id="g1tiCc5ioH"></path></defs><g><g><g><use xlink:href="#b1AHymPaOf" opacity="1" fill="#ffffff" fill-opacity="1"></use><g><use xlink:href="#b1AHymPaOf" opacity="1" fill-opacity="0" stroke="#000000" stroke-width="1" stroke-opacity="0"></use></g></g><g><use xlink:href="#g1tiCc5ioH" opacity="1" fill="#ffffff" fill-opacity="1"></use><g><use xlink:href="#g1tiCc5ioH" opacity="1" fill-opacity="0" stroke="#000000" stroke-width="1" stroke-opacity="0"></use></g></g></g></g></svg>