<?xml version="1.0" encoding="UTF-8" standalone="no"?>
<!DOCTYPE svg PUBLIC "-//W3C//DTD SVG 1.1//EN" "http://www.w3.org/Graphics/SVG/1.1/DTD/svg11.dtd">
<svg version="1.1" xmlns="http://www.w3.org/2000/svg" xmlns:xlink="http://www.w3.org/1999/xlink" preserveAspectRatio="xMidYMid meet" viewBox="0 0 640 640" width="640" height="640"><defs><path d="M418.93 318.36C418.93 306.52 414.13 294.92 405.75 286.54C391.13 271.92 274.17 154.95 259.55 140.33C241.98 122.75 213.49 122.75 195.92 140.33C178.34 157.91 178.34 186.4 195.92 203.96C195.92 203.96 195.91 203.96 195.91 203.96L265.3 273.36C134.76 273.36 62.24 273.36 47.73 273.36C22.88 273.36 2.73 293.51 2.73 318.36C2.73 343.22 22.88 363.36 47.73 363.36C62.24 363.36 134.76 363.36 265.29 363.36C223.67 404.98 200.54 428.11 195.92 432.73C178.34 450.31 178.34 478.81 195.91 496.37C213.49 513.94 241.98 513.94 259.55 496.37C269.3 486.62 318.03 437.89 405.75 350.18C414.54 336.87 418.93 326.26 418.93 318.36Z" id="f20qo1hblV"></path><path d="M478.93 221.6C515.77 238.3 541.43 275.29 541.43 318.36C541.43 361.43 515.77 398.42 478.93 415.1C478.93 432.6 478.93 572.65 478.93 590.16C478.93 616.78 500.51 638.36 527.12 638.36C533.32 638.36 582.88 638.36 589.07 638.36C615.69 638.36 637.26 616.78 637.26 590.16C637.26 535.8 637.26 100.9 637.26 46.54C637.26 19.92 615.69 -1.64 589.07 -1.64C582.88 -1.64 533.32 -1.64 527.12 -1.64C500.51 -1.64 478.93 19.92 478.93 46.54C478.93 81.55 478.93 204.09 478.93 221.6Z" id="e3s69vXqk2"></path></defs><g><g><g><use xlink:href="#f20qo1hblV" opacity="1" fill="#ffffff" fill-opacity="1"></use><g><use xlink:href="#f20qo1hblV" opacity="1" fill-opacity="0" stroke="#000000" stroke-width="1" stroke-opacity="0"></use></g></g><g><use xlink:href="#e3s69vXqk2" opacity="1" fill="#ffffff" fill-opacity="1"></use><g><use xlink:href="#e3s69vXqk2" opacity="1" fill-opacity="0" stroke="#000000" stroke-width="1" stroke-opacity="0"></use></g></g></g></g></svg>