<?xml version="1.0" encoding="UTF-8" standalone="no"?>
<!DOCTYPE svg PUBLIC "-//W3C//DTD SVG 1.1//EN" "http://www.w3.org/Graphics/SVG/1.1/DTD/svg11.dtd">
<svg version="1.1" xmlns="http://www.w3.org/2000/svg" xmlns:xlink="http://www.w3.org/1999/xlink" preserveAspectRatio="xMidYMid meet" viewBox="0 0 640 640" width="640" height="640"><defs><path d="M320 219.42C308.16 219.42 296.56 224.23 288.18 232.61C273.56 247.23 156.59 364.19 141.97 378.81C124.39 396.38 124.39 424.87 141.97 442.44C159.55 460.02 188.05 460.02 205.6 442.44C205.6 442.44 205.6 442.45 205.6 442.45L275 373.06C275 503.6 275 576.12 275 590.62C275 615.48 295.16 635.62 320 635.62C344.86 635.62 365 615.48 365 590.62C365 576.12 365 503.6 365 373.07C406.62 414.69 429.75 437.82 434.37 442.44C451.95 460.02 480.45 460.02 498.01 442.45C515.58 424.87 515.58 396.38 498.01 378.81C488.26 369.06 439.53 320.33 351.82 232.61C338.51 223.82 327.9 219.42 320 219.42Z" id="bAj2GHjG"></path><path d="M223.24 159.42C239.94 122.59 276.93 96.92 320 96.92C363.07 96.92 400.06 122.59 416.74 159.42C434.24 159.42 574.29 159.42 591.8 159.42C618.42 159.42 640 137.85 640 111.24C640 105.04 640 55.48 640 49.29C640 22.67 618.42 1.09 591.8 1.09C537.44 1.09 102.55 1.09 48.18 1.09C21.56 1.09 0 22.67 0 49.29C0 55.48 0 105.04 0 111.24C0 137.85 21.56 159.42 48.18 159.42C83.19 159.42 205.74 159.42 223.24 159.42Z" id="adxAThWhm"></path></defs><g><g><g><use xlink:href="#bAj2GHjG" opacity="1" fill="#4b4b4b" fill-opacity="1"></use><g><use xlink:href="#bAj2GHjG" opacity="1" fill-opacity="0" stroke="#000000" stroke-width="1" stroke-opacity="0"></use></g></g><g><use xlink:href="#adxAThWhm" opacity="1" fill="#4b4b4b" fill-opacity="1"></use><g><use xlink:href="#adxAThWhm" opacity="1" fill-opacity="0" stroke="#000000" stroke-width="1" stroke-opacity="0"></use></g></g></g></g></svg>