<?xml version="1.0" encoding="utf-8"?>
<!DOCTYPE svg PUBLIC "-//W3C//DTD SVG 1.1//EN" "http://www.w3.org/Graphics/SVG/1.1/DTD/svg11.dtd">
<svg xmlns="http://www.w3.org/2000/svg" xmlns:xlink="http://www.w3.org/1999/xlink" version="1.1" baseProfile="full" width="256" height="256" viewBox="0 0 256.00 256.00" enable-background="new 0 0 256.00 256.00" xml:space="preserve">
	<path fill="#000000" fill-opacity="1" fill-rule="evenodd" stroke-width="0.2" stroke-linejoin="round" d="M 17,105.412L 239,105.412C 244.523,105.412 249,109.889 249,115.412L 249,140.412C 249,145.935 244.523,150.412 239,150.412L 17,150.412C 11.4771,150.412 7.00001,145.935 7.00001,140.412L 7.00001,115.412C 7.00001,109.889 11.4771,105.412 17,105.412 Z "/>
	<path fill="#FF0000" fill-opacity="1" fill-rule="evenodd" stroke-width="0.2" stroke-linejoin="round" d="M 70.0173,78.4142L 78.5025,69.9289C 82.4078,66.0237 88.7394,66.0237 92.6447,69.9289L 185.983,163.267C 189.888,167.172 189.888,173.504 185.983,177.409L 177.497,185.894C 173.592,189.8 167.261,189.8 163.355,185.894L 70.0173,92.5563C 66.112,88.6511 66.112,82.3194 70.0173,78.4142 Z "/>
	<path fill="#FF0000" fill-opacity="1" fill-rule="evenodd" stroke-width="0.2" stroke-linejoin="round" d="M 177.497,69.9289L 185.983,78.4142C 189.888,82.3194 189.888,88.6511 185.983,92.5563L 92.6447,185.894C 88.7394,189.8 82.4078,189.8 78.5025,185.894L 70.0173,177.409C 66.112,173.504 66.112,167.172 70.0173,163.267L 163.355,69.9289C 167.261,66.0237 173.592,66.0237 177.497,69.9289 Z "/>
</svg>
