<?xml version="1.0" encoding="utf-8"?>
<!DOCTYPE svg PUBLIC "-//W3C//DTD SVG 1.1//EN" "http://www.w3.org/Graphics/SVG/1.1/DTD/svg11.dtd">
<svg xmlns="http://www.w3.org/2000/svg" xmlns:xlink="http://www.w3.org/1999/xlink" version="1.1" baseProfile="full" width="256" height="256" viewBox="0 0 256.00 256.00" enable-background="new 0 0 256.00 256.00" xml:space="preserve">
	<path fill="#000000" fill-opacity="1" stroke-linejoin="round" d="M 19,34.0002L 233,34.0002C 234.657,34.0002 236,35.3433 236,37.0002L 236,221C 236,222.657 234.657,224 233,224L 19,224C 17.3431,224 16,222.657 16,221L 16,37.0002C 16,35.3433 17.3431,34.0002 19,34.0002 Z "/>
	<path fill="#FFFFFF" fill-opacity="1" stroke-linejoin="round" d="M 29.5,43.0001L 118.5,43.0001C 120.157,43.0001 121.5,44.3433 121.5,46.0001L 121.5,90C 121.5,91.6568 120.157,93 118.5,93L 29.5,93C 27.8432,93 26.5,91.6568 26.5,90L 26.5,46.0001C 26.5,44.3433 27.8432,43.0001 29.5,43.0001 Z "/>
	<path fill="#FFFFFF" fill-opacity="1" stroke-linejoin="round" d="M 135.5,32L 237,32C 238.657,32 240,33.3431 240,35L 240,90C 240,91.6568 238.657,93 237,93L 135.5,93C 133.843,93 132.5,91.6568 132.5,90L 132.5,35C 132.5,33.3431 133.843,32 135.5,32 Z "/>
	<g>
		<path fill="#FFFFFF" fill-opacity="1" stroke-width="0.2" stroke-linejoin="round" d="M 29.5,103.5L 118.5,103.5C 120.157,103.5 121.5,104.843 121.5,106.5L 121.5,150.5C 121.5,152.157 120.157,153.5 118.5,153.5L 29.5,153.5C 27.8432,153.5 26.5,152.157 26.5,150.5L 26.5,106.5C 26.5,104.843 27.8432,103.5 29.5,103.5 Z "/>
		<path fill="#FFFFFF" fill-opacity="1" stroke-width="0.2" stroke-linejoin="round" d="M 135.5,103.5L 222.5,103.5C 224.157,103.5 225.5,104.843 225.5,106.5L 225.5,150.5C 225.5,152.157 224.157,153.5 222.5,153.5L 135.5,153.5C 133.843,153.5 132.5,152.157 132.5,150.5L 132.5,106.5C 132.5,104.843 133.843,103.5 135.5,103.5 Z "/>
	</g>
	<path fill="#FFFFFF" fill-opacity="1" stroke-linejoin="round" d="M 29.5,164L 118.5,164C 120.157,164 121.5,165.343 121.5,167L 121.5,211C 121.5,212.657 120.157,214 118.5,214L 29.5,214C 27.8431,214 26.5,212.657 26.5,211L 26.5,167C 26.5,165.343 27.8431,164 29.5,164 Z "/>
	<path fill="#FFFFFF" fill-opacity="1" stroke-linejoin="round" d="M 135.5,164L 237,164C 238.657,164 240,165.343 240,167L 240,211C 240,212.657 238.657,214 237,214L 135.5,214C 133.843,214 132.5,212.657 132.5,211L 132.5,167C 132.5,165.343 133.843,164 135.5,164 Z "/>
</svg>
