<?xml version="1.0" encoding="utf-8"?>
<!DOCTYPE svg PUBLIC "-//W3C//DTD SVG 1.1//EN" "http://www.w3.org/Graphics/SVG/1.1/DTD/svg11.dtd">
<svg xmlns="http://www.w3.org/2000/svg" xmlns:xlink="http://www.w3.org/1999/xlink" version="1.1" baseProfile="full" width="256" height="256" viewBox="0 0 256.00 256.00" enable-background="new 0 0 256.00 256.00" xml:space="preserve">
	<path fill="#000000" fill-opacity="1" stroke-width="0.2" stroke-linejoin="round" d="M 66.8736,48.5123L 193.315,48.5123C 198.838,48.5123 203.315,52.9895 203.315,58.5123L 203.315,72.1279C 203.315,77.6508 198.838,82.1279 193.315,82.1279L 66.8736,82.1279C 61.3508,82.1279 56.8736,77.6508 56.8736,72.1279L 56.8736,58.5123C 56.8736,52.9895 61.3508,48.5123 66.8736,48.5123 Z "/>
	<path fill="#000000" fill-opacity="1" stroke-width="0.2" stroke-linejoin="round" d="M 25.5043,111.198L 234.685,111.198C 240.208,111.198 244.685,115.675 244.685,121.198L 244.685,134.814C 244.685,140.337 240.208,144.814 234.685,144.814L 25.5043,144.814C 19.9814,144.814 15.5043,140.337 15.5043,134.814L 15.5043,121.198C 15.5043,115.675 19.9814,111.198 25.5043,111.198 Z "/>
	<path fill="#000000" fill-opacity="1" stroke-width="0.2" stroke-linejoin="round" d="M 46.9052,173.884L 213.284,173.884C 218.807,173.884 223.284,178.361 223.284,183.884L 223.284,197.5C 223.284,203.023 218.807,207.5 213.284,207.5L 46.9052,207.5C 41.3824,207.5 36.9052,203.023 36.9052,197.5L 36.9052,183.884C 36.9052,178.361 41.3824,173.884 46.9052,173.884 Z "/>
</svg>
