<?xml version="1.0" encoding="utf-8"?>
<!DOCTYPE svg PUBLIC "-//W3C//DTD SVG 1.1//EN" "http://www.w3.org/Graphics/SVG/1.1/DTD/svg11.dtd">
<svg xmlns="http://www.w3.org/2000/svg" xmlns:xlink="http://www.w3.org/1999/xlink" version="1.1" baseProfile="full" width="256" height="256" viewBox="0 0 256.00 256.00" enable-background="new 0 0 256.00 256.00" xml:space="preserve">
	<path fill="#000000" fill-opacity="1" fill-rule="evenodd" stroke-width="0.2" stroke-linejoin="round" d="M 202,240L 148.001,240C 145.239,240 143.001,237.762 143.001,235L 143.001,136.001L 107,136.001L 175.5,22.0007L 244,136.001L 207,136.001L 207,235C 207,237.762 204.762,240 202,240 Z "/>
	<path fill="#000000" fill-opacity="1" stroke-linejoin="round" d="M 98,240L 34,240L 34,230.919L 58.6154,230.919L 58.6154,166.054L 34,166.054L 34,158.27C 43.6752,158.23 50.5855,157.074 54.7308,154.804C 58.8761,152.534 61.2137,148.932 61.7436,144L 73.3846,144L 73.3846,230.919L 98,230.919L 98,240 Z "/>
	<path fill="#000000" fill-opacity="1" stroke-linejoin="round" d="M 35.0196,119.473L 35.0196,107.795L 35.8471,107.795C 39.7536,109.556 44.3086,110.436 49.5123,110.436C 70.9828,110.436 82.7842,98.7989 84.9164,75.5248C 75.6423,80.3117 67.1062,82.7051 59.3082,82.7051C 48.7369,82.7051 40.3761,79.9506 34.2256,74.4416C 28.0752,68.9326 25,61.3912 25,51.8175C 25,41.9825 28.4181,33.8874 35.2544,27.5325C 42.0907,21.1775 50.5858,18 60.7396,18C 72.3248,18 81.4311,21.7827 88.0587,29.3482C 94.6862,36.9136 98,48.303 98,63.5164C 98,81.756 93.6351,95.8965 84.9052,105.938C 76.1753,115.979 63.6545,121 47.3428,121C 42.5418,121 38.434,120.491 35.0196,119.473 Z M 84.9164,67.3954L 85.1177,61.3706C 85.1177,50.3801 83.0116,41.9446 78.7995,36.0642C 74.5874,30.1838 68.5078,27.2436 60.5607,27.2436C 53.5827,27.2436 48.0585,29.3826 43.9881,33.6605C 39.9176,37.9384 37.8824,43.8394 37.8824,51.3636C 37.8824,57.8149 39.7759,63.1107 43.5631,67.251C 47.3503,71.3914 53.62,73.4615 62.3722,73.4615C 69.544,73.4615 77.0587,71.4395 84.9164,67.3954 Z "/>
</svg>
