<?xml version="1.0" encoding="utf-8"?>
<!DOCTYPE svg PUBLIC "-//W3C//DTD SVG 1.1//EN" "http://www.w3.org/Graphics/SVG/1.1/DTD/svg11.dtd">
<svg xmlns="http://www.w3.org/2000/svg" xmlns:xlink="http://www.w3.org/1999/xlink" version="1.1" baseProfile="full" width="256" height="256" viewBox="0 0 256.00 256.00" enable-background="new 0 0 256.00 256.00" xml:space="preserve">
	<path fill="#000000" fill-opacity="1" fill-rule="evenodd" stroke-width="0.2" stroke-linejoin="round" d="M 149,22.0007L 202.999,22.0007C 205.761,22.0007 207.999,24.2393 207.999,27.0007L 207.999,126L 244,126L 175.5,240L 107,126L 144,126L 144,27.0007C 144,24.2393 146.238,22.0007 149,22.0007 Z "/>
	<g>
		<path fill="#000000" fill-opacity="1" stroke-linejoin="round" d="M 98.0133,238L 28.8533,238L 28.8533,227.933L 83.9842,157.92L 31.28,157.92L 31.28,148.213L 96.8,148.213L 96.8,157.977L 41.1383,228.293L 98.0133,228.293L 98.0133,238 Z "/>
	</g>
	<g>
		<path fill="#000000" fill-opacity="1" stroke-linejoin="round" d="M 77.96,85.53L 77.96,65.8133C 63.0335,66.4958 53.4374,68.1452 49.1718,70.7615C 44.9061,73.3777 42.7733,76.9798 42.7733,81.5677C 42.7733,89.6692 47.6962,93.72 57.5419,93.72C 64.2278,93.72 71.0339,90.99 77.96,85.53 Z M 77.96,101L 77.96,94.0044C 72.323,98.0867 67.6814,100.678 64.0351,101.777C 60.3888,102.877 56.6887,103.427 52.935,103.427C 46.881,103.427 41.8538,101.427 37.8536,97.4263C 33.8534,93.4261 31.8533,88.3485 31.8533,82.1933C 31.8533,74.3193 34.8266,68.3948 40.7732,64.4199C 46.7198,60.445 59.1154,58.0783 77.96,57.32L 77.96,55.2915C 77.96,50.6151 76.5634,47.1552 73.7702,44.9118C 70.977,42.6684 66.0668,41.5467 59.0396,41.5467C 52.8592,41.5467 45.9773,42.76 38.394,45.1867L 37.92,45.1867L 37.92,34.7406C 45.4528,32.8069 52.7012,31.84 59.6652,31.84C 69.7637,31.84 77.1574,33.7042 81.8464,37.4327C 86.5355,41.1612 88.88,46.9498 88.88,54.7985L 88.88,101L 77.96,101 Z "/>
	</g>
</svg>
