<?xml version="1.0" encoding="utf-8"?>
<!DOCTYPE svg PUBLIC "-//W3C//DTD SVG 1.1//EN" "http://www.w3.org/Graphics/SVG/1.1/DTD/svg11.dtd">
<svg xmlns="http://www.w3.org/2000/svg" xmlns:xlink="http://www.w3.org/1999/xlink" version="1.1" baseProfile="full" width="256" height="256" viewBox="0 0 256.00 256.00" enable-background="new 0 0 256.00 256.00" xml:space="preserve">
	<path fill="#000000" fill-opacity="1" fill-rule="evenodd" stroke-width="0.2" stroke-linejoin="round" d="M 149,22.0007L 202.999,22.0007C 205.761,22.0007 207.999,24.2393 207.999,27.0007L 207.999,126L 244,126L 175.5,240L 107,126L 144,126L 144,27.0007C 144,24.2393 146.238,22.0007 149,22.0007 Z "/>
	<path fill="#000000" fill-opacity="1" stroke-linejoin="round" d="M 95,114L 31,114L 31,104.919L 55.6154,104.919L 55.6154,40.054L 31,40.054L 31,32.2703C 40.6752,32.2297 47.5855,31.0743 51.7308,28.804C 55.8761,26.5338 58.2137,22.9324 58.7436,18L 70.3846,18L 70.3846,104.919L 95,104.919L 95,114 Z "/>
	<path fill="#000000" fill-opacity="1" stroke-linejoin="round" d="M 36.0196,239.473L 36.0196,227.795L 36.8471,227.795C 40.7536,229.556 45.3086,230.436 50.5122,230.436C 71.9828,230.436 83.7842,218.799 85.9164,195.525C 76.6423,200.312 68.1062,202.705 60.3082,202.705C 49.7369,202.705 41.3761,199.951 35.2256,194.442C 29.0752,188.933 26,181.391 26,171.817C 26,161.982 29.4181,153.887 36.2544,147.532C 43.0907,141.177 51.5858,138 61.7396,138C 73.3248,138 82.4311,141.783 89.0587,149.348C 95.6862,156.914 99,168.303 99,183.516C 99,201.756 94.6351,215.896 85.9052,225.938C 77.1753,235.979 64.6545,241 48.3428,241C 43.5418,241 39.434,240.491 36.0196,239.473 Z M 85.9164,187.395L 86.1176,181.371C 86.1176,170.38 84.0116,161.945 79.7995,156.064C 75.5874,150.184 69.5078,147.244 61.5607,147.244C 54.5827,147.244 49.0585,149.383 44.988,153.66C 40.9176,157.938 38.8823,163.839 38.8823,171.364C 38.8823,177.815 40.7759,183.111 44.5631,187.251C 48.3503,191.391 54.62,193.462 63.3722,193.462C 70.544,193.462 78.0587,191.439 85.9164,187.395 Z "/>
</svg>
