<?xml version="1.0" encoding="utf-8"?>
<!DOCTYPE svg PUBLIC "-//W3C//DTD SVG 1.1//EN" "http://www.w3.org/Graphics/SVG/1.1/DTD/svg11.dtd">
<svg xmlns="http://www.w3.org/2000/svg" xmlns:xlink="http://www.w3.org/1999/xlink" version="1.1" baseProfile="full" width="256" height="256" viewBox="0 0 256.00 256.00" enable-background="new 0 0 256.00 256.00" xml:space="preserve">
	<path fill="#000000" fill-opacity="1" fill-rule="evenodd" stroke-width="0.2" stroke-linejoin="round" d="M 202,240L 148,240C 145.239,240 143,237.762 143,235L 143,136.001L 107,136.001L 175.5,22.0008L 244,136.001L 207,136.001L 207,235C 207,237.762 204.762,240 202,240 Z "/>
	<g>
		<path fill="#000000" fill-opacity="1" stroke-linejoin="round" d="M 101.013,112L 31.8533,112L 31.8533,101.933L 86.9842,31.92L 34.28,31.92L 34.28,22.2134L 99.8,22.2134L 99.8,31.9769L 44.1383,102.293L 101.013,102.293L 101.013,112 Z "/>
	</g>
	<g>
		<path fill="#000000" fill-opacity="1" stroke-linejoin="round" d="M 83.96,213.53L 83.96,193.813C 69.0335,194.496 59.4374,196.145 55.1718,198.761C 50.9061,201.378 48.7733,204.98 48.7733,209.568C 48.7733,217.669 53.6962,221.72 63.5419,221.72C 70.2279,221.72 77.0339,218.99 83.96,213.53 Z M 83.96,229L 83.96,222.004C 78.3231,226.087 73.6814,228.678 70.0351,229.777C 66.3888,230.877 62.6888,231.427 58.935,231.427C 52.881,231.427 47.8539,229.427 43.8536,225.426C 39.8534,221.426 37.8533,216.348 37.8533,210.193C 37.8533,202.319 40.8266,196.395 46.7732,192.42C 52.7198,188.445 65.1154,186.078 83.96,185.32L 83.96,183.291C 83.96,178.615 82.5634,175.155 79.7702,172.912C 76.977,170.668 72.0668,169.547 65.0396,169.547C 58.8592,169.547 51.9773,170.76 44.394,173.187L 43.92,173.187L 43.92,162.741C 51.4528,160.807 58.7012,159.84 65.6652,159.84C 75.7637,159.84 83.1574,161.704 87.8465,165.433C 92.5355,169.161 94.88,174.95 94.88,182.799L 94.88,229L 83.96,229 Z "/>
	</g>
</svg>
