<?xml version="1.0" encoding="UTF-8" standalone="no"?>
<!DOCTYPE svg PUBLIC "-//W3C//DTD SVG 1.1//EN" "http://www.w3.org/Graphics/SVG/1.1/DTD/svg11.dtd">
<svg version="1.1" xmlns="http://www.w3.org/2000/svg" xmlns:xlink="http://www.w3.org/1999/xlink" preserveAspectRatio="xMidYMid meet" viewBox="0 0 640 640" width="640" height="640"><defs><path d="M354.05 591.54C363.66 597.76 376.07 597.51 385.43 590.92C394.78 584.32 399.21 572.73 396.59 561.59C394.72 553.55 385.33 513.35 368.43 441C507.04 441 584.05 441 599.45 441C621.83 441.01 639.99 422.86 639.99 400.46C639.99 384.37 640 255.63 640 239.54C639.99 217.13 621.83 198.98 599.45 198.98C584.05 198.98 507.04 198.98 368.42 198.98C385.33 126.64 394.73 86.45 396.61 78.41C399.21 67.28 394.79 55.67 385.43 49.08C376.07 42.5 363.66 42.24 354.05 48.45C319.93 73.08 47.04 270.09 12.93 294.72C4.81 300.58 0 309.99 0 320.01C0 330.02 4.81 339.43 12.93 345.28C81.15 394.53 319.93 566.91 354.05 591.54Z" id="b3tPT2aWh2"></path></defs><g><g><g><use xlink:href="#b3tPT2aWh2" opacity="1" fill="#4b4b4b" fill-opacity="1"></use><g><use xlink:href="#b3tPT2aWh2" opacity="1" fill-opacity="0" stroke="#000000" stroke-width="1" stroke-opacity="0"></use></g></g></g></g></svg>