<?xml version="1.0" encoding="utf-8"?>
<!-- Generator: Adobe Illustrator 18.1.1, SVG Export Plug-In . SVG Version: 6.00 Build 0)  -->
<!DOCTYPE svg PUBLIC "-//W3C//DTD SVG 1.1//EN" "http://www.w3.org/Graphics/SVG/1.1/DTD/svg11.dtd">
<svg version="1.1" id="_x32_" xmlns="http://www.w3.org/2000/svg" xmlns:xlink="http://www.w3.org/1999/xlink" x="0px" y="0px"
	 viewBox="0 0 512 512" style="enable-background:new 0 0 512 512;" xml:space="preserve">
<style type="text/css">
	.st0{fill:#FFFFFF;}
</style>
<g>
	<path class="st0" d="M501.66,235.774L228.764,38.771c-7.692-4.975-17.622-4.78-25.11,0.496
		c-7.478,5.277-11.022,14.546-8.928,23.465l22.53,96.466H32.441C14.537,159.189,0.01,173.715,0.01,191.63L0,320.372
		c0.01,17.925,14.537,32.442,32.441,32.442h184.823l-22.549,96.457c-2.084,8.908,1.45,18.197,8.938,23.464
		c7.488,5.267,17.418,5.472,25.11,0.507L501.66,276.228c6.494-4.693,10.34-12.219,10.34-20.232S508.155,240.457,501.66,235.774z"/>
</g>
</svg>
