<?xml version="1.0" encoding="UTF-8" standalone="no"?>
<!DOCTYPE svg PUBLIC "-//W3C//DTD SVG 1.1//EN" "http://www.w3.org/Graphics/SVG/1.1/DTD/svg11.dtd">
<svg version="1.1" xmlns="http://www.w3.org/2000/svg" xmlns:xlink="http://www.w3.org/1999/xlink" preserveAspectRatio="xMidYMid meet" viewBox="0 0 640 640" width="640" height="640"><defs><path d="M48.46 354.05C42.24 363.66 42.49 376.07 49.08 385.43C55.68 394.78 67.27 399.21 78.41 396.59C86.45 394.72 126.65 385.33 199 368.43C199 507.04 199 584.05 199 599.45C198.99 621.83 217.14 639.99 239.54 639.99C255.63 639.99 384.37 640 400.46 640C422.87 639.99 441.02 621.83 441.02 599.45C441.02 584.05 441.02 507.04 441.02 368.42C513.36 385.33 553.55 394.73 561.59 396.61C572.72 399.21 584.33 394.79 590.92 385.43C597.5 376.07 597.76 363.66 591.55 354.05C566.93 319.93 369.91 47.04 345.28 12.93C339.42 4.81 330.01 0 319.99 0C309.98 0 300.57 4.81 294.72 12.93C245.47 81.15 73.09 319.93 48.46 354.05Z" id="ahtt86BxB"></path></defs><g><g><g><use xlink:href="#ahtt86BxB" opacity="1" fill="#ffffff" fill-opacity="1"></use><g><use xlink:href="#ahtt86BxB" opacity="1" fill-opacity="0" stroke="#000000" stroke-width="1" stroke-opacity="0"></use></g></g></g></g></svg>