<?xml version="1.0" encoding="UTF-8" standalone="no"?>
<!DOCTYPE svg PUBLIC "-//W3C//DTD SVG 1.1//EN" "http://www.w3.org/Graphics/SVG/1.1/DTD/svg11.dtd">
<svg version="1.1" xmlns="http://www.w3.org/2000/svg" xmlns:xlink="http://www.w3.org/1999/xlink" preserveAspectRatio="xMidYMid meet" viewBox="0 0 640 640" width="640" height="640"><defs><path d="M320 344.85L216.95 241.81L166.15 292.6L320 446.45L473.84 292.6L423.05 241.81L320 344.85Z" id="aSKcGRmU1"></path><path d="M346.25 1.06L359.16 2.37L371.91 4.19L384.49 6.51L396.9 9.31L409.12 12.58L421.15 16.32L432.96 20.51L444.56 25.15L455.93 30.23L467.06 35.72L477.94 41.63L488.56 47.95L498.92 54.66L508.99 61.75L518.77 69.21L528.25 77.03L537.42 85.21L546.27 93.73L554.79 102.58L562.97 111.75L570.79 121.23L578.25 131.01L585.34 141.08L592.05 151.43L598.37 162.06L604.28 172.94L609.77 184.07L614.85 195.44L619.49 207.03L623.68 218.85L627.42 230.87L630.69 243.09L633.49 255.5L635.81 268.08L637.63 280.84L638.94 293.75L639.73 306.8L640 319.99L639.73 333.18L638.94 346.24L637.63 359.15L635.81 371.9L633.49 384.49L630.69 396.9L627.42 409.12L623.68 421.14L619.49 432.96L614.85 444.56L609.77 455.93L604.28 467.06L598.37 477.94L592.05 488.56L585.34 498.91L578.25 508.99L570.79 518.77L562.97 528.25L554.79 537.42L546.27 546.27L537.42 554.79L528.25 562.97L518.77 570.79L508.99 578.25L498.92 585.34L488.56 592.05L477.94 598.36L467.06 604.28L455.93 609.77L444.56 614.85L432.96 619.49L421.15 623.68L409.12 627.42L396.9 630.69L384.49 633.49L371.91 635.81L359.16 637.63L346.25 638.94L333.19 639.73L320 640L306.81 639.73L293.75 638.94L280.84 637.63L268.09 635.81L255.51 633.49L243.1 630.69L230.88 627.42L218.85 623.68L207.04 619.49L195.44 614.85L184.07 609.77L172.94 604.28L162.06 598.36L151.44 592.05L141.09 585.34L131.01 578.25L121.23 570.79L111.75 562.97L102.58 554.79L93.73 546.27L85.21 537.42L77.03 528.25L69.21 518.77L61.75 508.99L54.66 498.91L47.95 488.56L41.64 477.94L35.72 467.06L30.23 455.93L25.15 444.56L20.51 432.96L16.32 421.14L12.58 409.12L9.31 396.9L6.51 384.49L4.19 371.9L2.38 359.15L1.06 346.24L0.27 333.18L0 319.99L0.27 306.8L1.06 293.75L2.38 280.84L4.19 268.08L6.51 255.5L9.31 243.09L12.58 230.87L16.32 218.85L20.51 207.03L25.15 195.44L30.23 184.07L35.72 172.94L41.64 162.06L47.95 151.43L54.66 141.08L61.75 131.01L69.21 121.23L77.03 111.75L85.21 102.58L93.73 93.73L102.58 85.21L111.75 77.03L121.23 69.21L131.01 61.75L141.09 54.66L151.44 47.95L162.06 41.63L172.94 35.72L184.07 30.23L195.44 25.15L207.04 20.51L218.85 16.32L230.88 12.58L243.1 9.31L255.51 6.51L268.09 4.19L280.84 2.37L293.75 1.06L306.81 0.27L320 0L333.19 0.27L346.25 1.06ZM308.87 50.49L303.35 50.77L297.86 51.16L292.4 51.66L286.98 52.26L281.58 52.97L276.23 53.79L270.9 54.71L265.62 55.74L260.37 56.87L255.16 58.1L249.99 59.43L244.86 60.86L239.78 62.38L234.73 64.01L229.73 65.72L224.78 67.54L219.87 69.45L215.01 71.45L210.19 73.54L205.43 75.72L200.72 77.99L196.05 80.35L191.44 82.8L186.89 85.34L182.38 87.96L177.94 90.66L173.54 93.44L169.21 96.31L164.94 99.26L160.72 102.29L156.57 105.4L152.47 108.58L148.44 111.85L144.48 115.18L140.57 118.6L136.74 122.08L132.97 125.64L129.27 129.27L125.64 132.97L122.08 136.74L118.6 140.57L115.19 144.48L111.85 148.44L108.59 152.47L105.4 156.56L102.3 160.72L99.27 164.93L96.32 169.21L93.45 173.54L90.66 177.93L87.96 182.38L85.34 186.88L82.81 191.44L80.36 196.05L78 200.71L75.73 205.43L73.55 210.19L71.45 215L69.45 219.86L67.55 224.77L65.73 229.73L64.01 234.73L62.39 239.77L60.86 244.86L59.43 249.98L58.1 255.15L56.87 260.36L55.75 265.61L54.72 270.9L53.8 276.22L52.98 281.58L52.27 286.97L51.66 292.39L51.16 297.85L50.77 303.34L50.49 308.86L50.32 314.41L50.26 319.99L50.32 325.57L50.49 331.12L50.77 336.64L51.16 342.13L51.66 347.59L52.27 353.02L52.98 358.41L53.8 363.77L54.72 369.09L55.75 374.38L56.87 379.62L58.1 384.83L59.43 390L60.86 395.13L62.39 400.22L64.01 405.26L65.73 410.26L67.55 415.22L69.45 420.13L71.45 424.99L73.55 429.8L75.73 434.57L78 439.28L80.36 443.94L82.81 448.55L85.34 453.11L87.96 457.61L90.66 462.06L93.45 466.45L96.32 470.79L99.27 475.06L102.3 479.28L105.4 483.43L108.59 487.52L111.85 491.55L115.19 495.52L118.6 499.42L122.08 503.26L125.64 507.03L129.27 510.73L132.97 514.36L136.74 517.92L140.57 521.4L144.48 524.82L148.44 528.15L152.47 531.42L156.57 534.6L160.72 537.71L164.94 540.74L169.21 543.69L173.54 546.56L177.94 549.34L182.38 552.04L186.89 554.66L191.44 557.2L196.05 559.65L200.72 562.01L205.43 564.28L210.19 566.46L215.01 568.55L219.87 570.55L224.78 572.46L229.73 574.28L234.73 575.99L239.78 577.62L244.86 579.14L249.99 580.57L255.16 581.9L260.37 583.13L265.62 584.26L270.9 585.29L276.23 586.21L281.58 587.03L286.98 587.74L292.4 588.34L297.86 588.84L303.35 589.23L308.87 589.51L314.42 589.68L320 589.74L325.58 589.68L331.13 589.51L336.65 589.23L342.14 588.84L347.6 588.34L353.03 587.74L358.42 587.03L363.78 586.21L369.1 585.29L374.39 584.26L379.63 583.13L384.84 581.9L390.01 580.57L395.14 579.14L400.23 577.62L405.27 575.99L410.27 574.28L415.23 572.46L420.13 570.55L425 568.55L429.81 566.46L434.57 564.28L439.29 562.01L443.95 559.65L448.56 557.2L453.12 554.66L457.62 552.04L462.07 549.34L466.46 546.56L470.79 543.69L475.07 540.74L479.28 537.71L483.44 534.6L487.53 531.42L491.56 528.15L495.52 524.82L499.43 521.4L503.26 517.92L507.03 514.36L510.73 510.73L514.36 507.03L517.92 503.26L521.4 499.42L524.82 495.52L528.15 491.56L531.42 487.52L534.6 483.43L537.71 479.28L540.74 475.06L543.69 470.79L546.56 466.45L549.34 462.06L552.04 457.61L554.66 453.11L557.2 448.55L559.65 443.94L562.01 439.28L564.28 434.57L566.46 429.8L568.55 424.99L570.55 420.13L572.46 415.22L574.28 410.26L575.99 405.26L577.62 400.22L579.14 395.13L580.57 390L581.9 384.83L583.13 379.62L584.26 374.38L585.29 369.09L586.21 363.77L587.03 358.41L587.74 353.02L588.34 347.59L588.84 342.13L589.23 336.64L589.51 331.12L589.68 325.57L589.74 319.99L589.68 314.41L589.51 308.86L589.23 303.34L588.84 297.85L588.34 292.39L587.74 286.97L587.03 281.58L586.21 276.22L585.29 270.9L584.26 265.61L583.13 260.36L581.9 255.15L580.57 249.98L579.14 244.86L577.62 239.77L575.99 234.73L574.28 229.73L572.46 224.77L570.55 219.86L568.55 215L566.46 210.19L564.28 205.43L562.01 200.71L559.65 196.05L557.2 191.44L554.66 186.88L552.04 182.38L549.34 177.93L546.56 173.54L543.69 169.21L540.74 164.93L537.71 160.72L534.6 156.56L531.42 152.47L528.15 148.44L524.82 144.48L521.4 140.57L517.92 136.74L514.36 132.97L510.73 129.27L507.03 125.64L503.26 122.08L499.43 118.6L495.52 115.18L491.56 111.85L487.53 108.58L483.44 105.4L479.28 102.29L475.07 99.26L470.79 96.31L466.46 93.44L462.07 90.66L457.62 87.96L453.12 85.34L448.56 82.8L443.95 80.35L439.29 77.99L434.57 75.72L429.81 73.54L425 71.45L420.13 69.45L415.23 67.54L410.27 65.72L405.27 64.01L400.23 62.38L395.14 60.86L390.01 59.43L384.84 58.1L379.63 56.87L374.39 55.74L369.1 54.71L363.78 53.79L358.42 52.97L353.03 52.26L347.6 51.66L342.14 51.16L336.65 50.77L331.13 50.49L325.58 50.32L320 50.26L314.42 50.32L308.87 50.49Z" id="dwCd1uQmm"></path></defs><g><g><g><use xlink:href="#aSKcGRmU1" opacity="1" fill="#4b4b4b" fill-opacity="1"></use><g><use xlink:href="#aSKcGRmU1" opacity="1" fill-opacity="0" stroke="#000000" stroke-width="1" stroke-opacity="0"></use></g></g><g><use xlink:href="#dwCd1uQmm" opacity="1" fill="#4b4b4b" fill-opacity="1"></use><g><use xlink:href="#dwCd1uQmm" opacity="1" fill-opacity="0" stroke="#000000" stroke-width="1" stroke-opacity="0"></use></g></g></g></g></svg>