<?xml version="1.0" encoding="UTF-8" standalone="no"?>
<!DOCTYPE svg PUBLIC "-//W3C//DTD SVG 1.1//EN" "http://www.w3.org/Graphics/SVG/1.1/DTD/svg11.dtd">
<svg version="1.1" xmlns="http://www.w3.org/2000/svg" xmlns:xlink="http://www.w3.org/1999/xlink" preserveAspectRatio="xMidYMid meet" viewBox="0 0 640 640" width="640" height="640"><defs><path d="M295.15 320L398.19 216.95L347.4 166.15L193.55 320L347.4 473.84L398.19 423.05L295.15 320Z" id="eb4XxNXhM"></path><path d="M346.25 1.06L359.16 2.38L371.92 4.19L384.5 6.51L396.91 9.31L409.13 12.58L421.15 16.32L432.97 20.51L444.56 25.15L455.93 30.23L467.06 35.72L477.94 41.64L488.57 47.95L498.92 54.66L508.99 61.75L518.77 69.21L528.25 77.03L537.42 85.21L546.27 93.73L554.79 102.58L562.97 111.75L570.79 121.23L578.25 131.01L585.34 141.09L592.05 151.44L598.37 162.06L604.28 172.94L609.77 184.07L614.85 195.44L619.49 207.04L623.68 218.85L627.42 230.88L630.69 243.1L633.49 255.51L635.81 268.09L637.63 280.84L638.94 293.75L639.73 306.81L640 320L639.73 333.19L638.94 346.25L637.63 359.16L635.81 371.91L633.49 384.49L630.69 396.9L627.42 409.12L623.68 421.15L619.49 432.96L614.85 444.56L609.77 455.93L604.28 467.06L598.37 477.94L592.05 488.56L585.34 498.92L578.25 508.99L570.79 518.77L562.97 528.25L554.79 537.42L546.27 546.27L537.42 554.79L528.25 562.97L518.77 570.79L508.99 578.25L498.92 585.34L488.57 592.05L477.94 598.37L467.06 604.28L455.93 609.77L444.56 614.85L432.97 619.49L421.15 623.68L409.13 627.42L396.91 630.69L384.5 633.49L371.92 635.81L359.16 637.63L346.25 638.94L333.2 639.73L320.01 640L306.82 639.73L293.76 638.94L280.85 637.63L268.1 635.81L255.51 633.49L243.1 630.69L230.88 627.42L218.86 623.68L207.04 619.49L195.44 614.85L184.07 609.77L172.94 604.28L162.06 598.37L151.44 592.05L141.09 585.34L131.01 578.25L121.23 570.79L111.75 562.97L102.58 554.79L93.73 546.27L85.21 537.42L77.03 528.25L69.21 518.77L61.75 508.99L54.66 498.92L47.95 488.56L41.64 477.94L35.72 467.06L30.23 455.93L25.15 444.56L20.51 432.96L16.32 421.15L12.58 409.12L9.31 396.9L6.51 384.49L4.19 371.91L2.37 359.16L1.06 346.25L0.27 333.19L0 320L0.27 306.81L1.06 293.75L2.37 280.84L4.19 268.09L6.51 255.51L9.31 243.1L12.58 230.88L16.32 218.85L20.51 207.04L25.15 195.44L30.23 184.07L35.72 172.94L41.64 162.06L47.95 151.44L54.66 141.09L61.75 131.01L69.21 121.23L77.03 111.75L85.21 102.58L93.73 93.73L102.58 85.21L111.75 77.03L121.23 69.21L131.01 61.75L141.09 54.66L151.44 47.95L162.06 41.64L172.94 35.72L184.07 30.23L195.44 25.15L207.04 20.51L218.86 16.32L230.88 12.58L243.1 9.31L255.51 6.51L268.1 4.19L280.85 2.38L293.76 1.06L306.82 0.27L320.01 0L333.2 0.27L346.25 1.06ZM308.88 50.49L303.36 50.77L297.87 51.16L292.41 51.66L286.98 52.27L281.59 52.98L276.23 53.8L270.91 54.72L265.62 55.75L260.38 56.87L255.17 58.1L250 59.43L244.87 60.86L239.78 62.39L234.74 64.01L229.74 65.73L224.78 67.55L219.87 69.45L215.01 71.45L210.2 73.55L205.43 75.73L200.72 78L196.06 80.36L191.45 82.81L186.89 85.34L182.39 87.96L177.94 90.66L173.55 93.45L169.21 96.32L164.94 99.27L160.72 102.3L156.57 105.4L152.48 108.59L148.45 111.85L144.48 115.19L140.58 118.6L136.74 122.08L132.97 125.64L129.27 129.27L125.64 132.97L122.08 136.74L118.6 140.57L115.18 144.48L111.85 148.44L108.58 152.47L105.4 156.57L102.29 160.72L99.26 164.94L96.31 169.21L93.44 173.54L90.66 177.94L87.96 182.38L85.34 186.89L82.8 191.44L80.35 196.05L77.99 200.72L75.72 205.43L73.54 210.19L71.45 215.01L69.45 219.87L67.54 224.78L65.72 229.73L64.01 234.73L62.38 239.78L60.86 244.86L59.43 249.99L58.1 255.16L56.87 260.37L55.74 265.62L54.71 270.9L53.79 276.23L52.97 281.58L52.26 286.98L51.66 292.4L51.16 297.86L50.77 303.35L50.49 308.87L50.32 314.42L50.26 320L50.32 325.58L50.49 331.13L50.77 336.65L51.16 342.14L51.66 347.6L52.26 353.03L52.97 358.42L53.79 363.78L54.71 369.1L55.74 374.39L56.87 379.63L58.1 384.84L59.43 390.01L60.86 395.14L62.38 400.23L64.01 405.27L65.72 410.27L67.54 415.23L69.45 420.13L71.45 425L73.54 429.81L75.72 434.57L77.99 439.29L80.35 443.95L82.8 448.56L85.34 453.12L87.96 457.62L90.66 462.07L93.44 466.46L96.31 470.79L99.26 475.07L102.29 479.28L105.4 483.44L108.58 487.53L111.85 491.56L115.18 495.52L118.6 499.43L122.08 503.26L125.64 507.03L129.27 510.73L132.97 514.36L136.74 517.92L140.58 521.4L144.48 524.82L148.44 528.15L152.48 531.42L156.57 534.6L160.72 537.71L164.94 540.74L169.21 543.69L173.55 546.56L177.94 549.34L182.39 552.04L186.89 554.66L191.45 557.2L196.06 559.65L200.72 562.01L205.43 564.28L210.2 566.46L215.01 568.55L219.87 570.55L224.78 572.46L229.74 574.28L234.74 575.99L239.78 577.62L244.87 579.14L250 580.57L255.17 581.9L260.38 583.13L265.62 584.26L270.91 585.29L276.23 586.21L281.59 587.03L286.98 587.74L292.41 588.34L297.87 588.84L303.36 589.23L308.88 589.51L314.43 589.68L320.01 589.74L325.59 589.68L331.14 589.51L336.66 589.23L342.15 588.84L347.61 588.34L353.03 587.74L358.42 587.03L363.78 586.21L369.1 585.29L374.39 584.26L379.64 583.13L384.85 581.9L390.02 580.57L395.14 579.14L400.23 577.62L405.27 575.99L410.27 574.28L415.23 572.46L420.14 570.55L425 568.55L429.81 566.46L434.57 564.28L439.29 562.01L443.95 559.65L448.56 557.2L453.12 554.66L457.62 552.04L462.07 549.34L466.46 546.56L470.79 543.69L475.07 540.74L479.28 537.71L483.44 534.6L487.53 531.42L491.56 528.15L495.52 524.82L499.43 521.4L503.26 517.92L507.03 514.36L510.73 510.73L514.36 507.03L517.92 503.26L521.4 499.43L524.82 495.52L528.15 491.56L531.42 487.53L534.6 483.44L537.71 479.28L540.74 475.07L543.69 470.79L546.56 466.46L549.34 462.07L552.04 457.62L554.66 453.12L557.2 448.56L559.65 443.95L562.01 439.29L564.28 434.57L566.46 429.81L568.55 425L570.55 420.13L572.46 415.23L574.28 410.27L575.99 405.27L577.62 400.23L579.14 395.14L580.57 390.01L581.9 384.84L583.13 379.63L584.26 374.39L585.29 369.1L586.21 363.78L587.03 358.42L587.74 353.03L588.34 347.6L588.84 342.14L589.23 336.65L589.51 331.13L589.68 325.58L589.74 320L589.68 314.42L589.51 308.87L589.23 303.35L588.84 297.86L588.34 292.4L587.74 286.98L587.03 281.58L586.21 276.23L585.29 270.9L584.26 265.62L583.13 260.37L581.9 255.16L580.57 249.99L579.14 244.86L577.62 239.78L575.99 234.73L574.28 229.73L572.46 224.78L570.55 219.87L568.55 215.01L566.46 210.19L564.28 205.43L562.01 200.72L559.65 196.05L557.2 191.44L554.66 186.89L552.04 182.38L549.34 177.94L546.56 173.54L543.69 169.21L540.74 164.94L537.71 160.72L534.6 156.57L531.42 152.47L528.15 148.44L524.82 144.48L521.4 140.57L517.92 136.74L514.36 132.97L510.73 129.27L507.03 125.64L503.26 122.08L499.43 118.6L495.52 115.19L491.56 111.85L487.53 108.59L483.44 105.4L479.28 102.3L475.07 99.27L470.79 96.32L466.46 93.45L462.07 90.66L457.62 87.96L453.12 85.34L448.56 82.81L443.95 80.36L439.29 78L434.57 75.73L429.81 73.55L425 71.45L420.14 69.45L415.23 67.55L410.27 65.73L405.27 64.01L400.23 62.39L395.14 60.86L390.02 59.43L384.85 58.1L379.64 56.87L374.39 55.75L369.1 54.72L363.78 53.8L358.42 52.98L353.03 52.27L347.61 51.66L342.15 51.16L336.66 50.77L331.14 50.49L325.59 50.32L320.01 50.26L314.43 50.32L308.88 50.49Z" id="c2YapFknrn"></path></defs><g><g><g><use xlink:href="#eb4XxNXhM" opacity="1" fill="#4b4b4b" fill-opacity="1"></use><g><use xlink:href="#eb4XxNXhM" opacity="1" fill-opacity="0" stroke="#000000" stroke-width="1" stroke-opacity="0"></use></g></g><g><use xlink:href="#c2YapFknrn" opacity="1" fill="#4b4b4b" fill-opacity="1"></use><g><use xlink:href="#c2YapFknrn" opacity="1" fill-opacity="0" stroke="#000000" stroke-width="1" stroke-opacity="0"></use></g></g></g></g></svg>