<?xml version="1.0" encoding="utf-8"?>
<!-- Generator: Adobe Illustrator 18.1.1, SVG Export Plug-In . SVG Version: 6.00 Build 0)  -->
<!DOCTYPE svg PUBLIC "-//W3C//DTD SVG 1.1//EN" "http://www.w3.org/Graphics/SVG/1.1/DTD/svg11.dtd">
<svg version="1.1" id="_x32_" xmlns="http://www.w3.org/2000/svg" xmlns:xlink="http://www.w3.org/1999/xlink" x="0px" y="0px"
	 viewBox="0 0 512 512" style="enable-background:new 0 0 512 512;" xml:space="preserve">
<style type="text/css">
	.st0{fill:#FFFFFF;}
</style>
<g>
	<polygon class="st0" points="193.447,173.562 275.877,256 193.447,338.438 234.081,379.08 357.161,256 234.081,132.928 	"/>
	<path class="st0" d="M255.992,0C114.606,0.015,0.015,114.606,0,256c0.015,141.394,114.606,255.984,255.992,256
		C397.394,511.984,511.985,397.394,512,256C511.985,114.606,397.394,0.015,255.992,0z M408.585,408.585
		c-39.118,39.079-92.938,63.189-152.593,63.205c-59.647-0.016-113.467-24.126-152.577-63.205
		C64.328,369.474,40.218,315.647,40.21,256c0.008-59.655,24.118-113.475,63.205-152.585c39.11-39.087,92.93-63.197,152.577-63.205
		c59.655,0.008,113.476,24.118,152.593,63.205c39.087,39.11,63.197,92.93,63.205,152.585
		C471.782,315.647,447.672,369.474,408.585,408.585z"/>
</g>
</svg>
