<?xml version="1.0" encoding="UTF-8" standalone="no"?>
<!DOCTYPE svg PUBLIC "-//W3C//DTD SVG 1.1//EN" "http://www.w3.org/Graphics/SVG/1.1/DTD/svg11.dtd">
<svg version="1.1" xmlns="http://www.w3.org/2000/svg" xmlns:xlink="http://www.w3.org/1999/xlink" preserveAspectRatio="xMidYMid meet" viewBox="0 0 640 640" width="640" height="640"><defs><path d="M320 295.15L423.05 398.19L473.85 347.4L320 193.55L166.16 347.4L216.95 398.19L320 295.15Z" id="jkawkmvLQ"></path><path d="M346.25 1.06L359.16 2.37L371.91 4.19L384.49 6.51L396.9 9.31L409.12 12.58L421.15 16.32L432.96 20.51L444.56 25.15L455.93 30.23L467.06 35.72L477.94 41.64L488.56 47.95L498.91 54.66L508.99 61.75L518.77 69.21L528.25 77.03L537.42 85.21L546.27 93.73L554.79 102.58L562.97 111.75L570.79 121.23L578.25 131.01L585.34 141.09L592.05 151.44L598.36 162.06L604.28 172.94L609.77 184.07L614.85 195.44L619.49 207.04L623.68 218.86L627.42 230.88L630.69 243.1L633.49 255.51L635.81 268.1L637.62 280.85L638.94 293.76L639.73 306.82L640 320.01L639.73 333.2L638.94 346.25L637.62 359.16L635.81 371.92L633.49 384.5L630.69 396.91L627.42 409.13L623.68 421.15L619.49 432.97L614.85 444.56L609.77 455.93L604.28 467.06L598.36 477.94L592.05 488.57L585.34 498.92L578.25 508.99L570.79 518.77L562.97 528.25L554.79 537.42L546.27 546.27L537.42 554.79L528.25 562.97L518.77 570.79L508.99 578.25L498.91 585.34L488.56 592.05L477.94 598.37L467.06 604.28L455.93 609.77L444.56 614.85L432.96 619.49L421.15 623.68L409.12 627.42L396.9 630.69L384.49 633.49L371.91 635.81L359.16 637.63L346.25 638.94L333.19 639.73L320 640L306.81 639.73L293.75 638.94L280.84 637.63L268.09 635.81L255.51 633.49L243.1 630.69L230.88 627.42L218.85 623.68L207.04 619.49L195.44 614.85L184.07 609.77L172.94 604.28L162.06 598.37L151.44 592.05L141.08 585.34L131.01 578.25L121.23 570.79L111.75 562.97L102.58 554.79L93.73 546.27L85.21 537.42L77.03 528.25L69.21 518.77L61.75 508.99L54.66 498.92L47.95 488.57L41.63 477.94L35.72 467.06L30.23 455.93L25.15 444.56L20.51 432.97L16.32 421.15L12.58 409.13L9.31 396.91L6.51 384.5L4.19 371.92L2.37 359.16L1.06 346.25L0.27 333.2L0 320.01L0.27 306.82L1.06 293.76L2.37 280.85L4.19 268.1L6.51 255.51L9.31 243.1L12.58 230.88L16.32 218.86L20.51 207.04L25.15 195.44L30.23 184.07L35.72 172.94L41.63 162.06L47.95 151.44L54.66 141.09L61.75 131.01L69.21 121.23L77.03 111.75L85.21 102.58L93.73 93.73L102.58 85.21L111.75 77.03L121.23 69.21L131.01 61.75L141.08 54.66L151.44 47.95L162.06 41.64L172.94 35.72L184.07 30.23L195.44 25.15L207.04 20.51L218.85 16.32L230.88 12.58L243.1 9.31L255.51 6.51L268.09 4.19L280.84 2.37L293.75 1.06L306.81 0.27L320 0L333.19 0.27L346.25 1.06ZM308.87 50.49L303.35 50.77L297.86 51.16L292.4 51.66L286.97 52.26L281.58 52.97L276.22 53.79L270.9 54.71L265.61 55.74L260.37 56.87L255.16 58.1L249.99 59.43L244.86 60.86L239.77 62.38L234.73 64.01L229.73 65.72L224.77 67.54L219.87 69.45L215 71.45L210.19 73.54L205.43 75.72L200.71 77.99L196.05 80.35L191.44 82.8L186.88 85.34L182.38 87.96L177.93 90.66L173.54 93.44L169.21 96.31L164.93 99.26L160.72 102.29L156.56 105.4L152.47 108.58L148.44 111.85L144.48 115.18L140.57 118.6L136.74 122.08L132.97 125.64L129.27 129.27L125.64 132.97L122.08 136.74L118.6 140.58L115.18 144.48L111.85 148.44L108.58 152.48L105.4 156.57L102.29 160.72L99.26 164.94L96.31 169.21L93.44 173.55L90.66 177.94L87.96 182.39L85.34 186.89L82.8 191.45L80.35 196.06L77.99 200.72L75.72 205.43L73.54 210.2L71.45 215.01L69.45 219.87L67.54 224.78L65.72 229.74L64.01 234.74L62.38 239.78L60.86 244.87L59.43 250L58.1 255.17L56.87 260.38L55.74 265.62L54.71 270.91L53.79 276.23L52.97 281.59L52.26 286.98L51.66 292.41L51.16 297.87L50.77 303.36L50.49 308.88L50.32 314.43L50.26 320.01L50.32 325.59L50.49 331.14L50.77 336.66L51.16 342.15L51.66 347.61L52.26 353.03L52.97 358.42L53.79 363.78L54.71 369.1L55.74 374.39L56.87 379.64L58.1 384.85L59.43 390.02L60.86 395.14L62.38 400.23L64.01 405.27L65.72 410.27L67.54 415.23L69.45 420.14L71.45 425L73.54 429.81L75.72 434.57L77.99 439.29L80.35 443.95L82.8 448.56L85.34 453.12L87.96 457.62L90.66 462.07L93.44 466.46L96.31 470.79L99.26 475.07L102.29 479.28L105.4 483.44L108.58 487.53L111.85 491.56L115.18 495.52L118.6 499.43L122.08 503.26L125.64 507.03L129.27 510.73L132.97 514.36L136.74 517.92L140.57 521.4L144.48 524.82L148.44 528.15L152.47 531.42L156.56 534.6L160.72 537.71L164.93 540.74L169.21 543.69L173.54 546.56L177.93 549.34L182.38 552.04L186.88 554.66L191.44 557.2L196.05 559.65L200.71 562.01L205.43 564.28L210.19 566.46L215 568.55L219.87 570.55L224.77 572.46L229.73 574.28L234.73 575.99L239.77 577.62L244.86 579.14L249.99 580.57L255.16 581.9L260.37 583.13L265.61 584.26L270.9 585.29L276.22 586.21L281.58 587.03L286.97 587.74L292.4 588.34L297.86 588.84L303.35 589.23L308.87 589.51L314.42 589.68L320 589.74L325.58 589.68L331.13 589.51L336.65 589.23L342.14 588.84L347.6 588.34L353.02 587.74L358.42 587.03L363.77 586.21L369.1 585.29L374.38 584.26L379.63 583.13L384.84 581.9L390.01 580.57L395.14 579.14L400.22 577.62L405.27 575.99L410.27 574.28L415.22 572.46L420.13 570.55L424.99 568.55L429.81 566.46L434.57 564.28L439.28 562.01L443.95 559.65L448.56 557.2L453.11 554.66L457.62 552.04L462.06 549.34L466.46 546.56L470.79 543.69L475.06 540.74L479.28 537.71L483.43 534.6L487.53 531.42L491.56 528.15L495.52 524.82L499.43 521.4L503.26 517.92L507.03 514.36L510.73 510.73L514.36 507.03L517.92 503.26L521.4 499.43L524.81 495.52L528.15 491.56L531.41 487.53L534.6 483.44L537.7 479.28L540.73 475.07L543.68 470.79L546.55 466.46L549.34 462.07L552.04 457.62L554.66 453.12L557.19 448.56L559.64 443.95L562 439.29L564.27 434.57L566.45 429.81L568.55 425L570.55 420.14L572.45 415.23L574.27 410.27L575.99 405.27L577.61 400.23L579.14 395.14L580.57 390.02L581.9 384.85L583.13 379.64L584.25 374.39L585.28 369.1L586.2 363.78L587.02 358.42L587.73 353.03L588.34 347.61L588.84 342.15L589.23 336.66L589.51 331.14L589.68 325.59L589.74 320.01L589.68 314.43L589.51 308.88L589.23 303.36L588.84 297.87L588.34 292.41L587.73 286.98L587.02 281.59L586.2 276.23L585.28 270.91L584.25 265.62L583.13 260.38L581.9 255.17L580.57 250L579.14 244.87L577.61 239.78L575.99 234.74L574.27 229.74L572.45 224.78L570.55 219.87L568.55 215.01L566.45 210.2L564.27 205.43L562 200.72L559.64 196.06L557.19 191.45L554.66 186.89L552.04 182.39L549.34 177.94L546.55 173.55L543.68 169.21L540.73 164.94L537.7 160.72L534.6 156.57L531.41 152.48L528.15 148.45L524.81 144.48L521.4 140.58L517.92 136.74L514.36 132.97L510.73 129.27L507.03 125.64L503.26 122.08L499.43 118.6L495.52 115.18L491.56 111.85L487.53 108.58L483.43 105.4L479.28 102.29L475.06 99.26L470.79 96.31L466.46 93.44L462.06 90.66L457.62 87.96L453.11 85.34L448.56 82.8L443.95 80.35L439.28 77.99L434.57 75.72L429.81 73.54L424.99 71.45L420.13 69.45L415.22 67.54L410.27 65.72L405.27 64.01L400.22 62.38L395.14 60.86L390.01 59.43L384.84 58.1L379.63 56.87L374.38 55.74L369.1 54.71L363.77 53.79L358.42 52.97L353.02 52.26L347.6 51.66L342.14 51.16L336.65 50.77L331.13 50.49L325.58 50.32L320 50.26L314.42 50.32L308.87 50.49Z" id="aibuGzloy"></path></defs><g><g><g><use xlink:href="#jkawkmvLQ" opacity="1" fill="#4b4b4b" fill-opacity="1"></use><g><use xlink:href="#jkawkmvLQ" opacity="1" fill-opacity="0" stroke="#000000" stroke-width="1" stroke-opacity="0"></use></g></g><g><use xlink:href="#aibuGzloy" opacity="1" fill="#4b4b4b" fill-opacity="1"></use><g><use xlink:href="#aibuGzloy" opacity="1" fill-opacity="0" stroke="#000000" stroke-width="1" stroke-opacity="0"></use></g></g></g></g></svg>